Category : Full Motion Video 

Genre : Action  Horor

Source: WEB

Duration : 00:03:22 

Total Size: ~ 46.9 MB

Visuals : Movies And TV Series 

Musical Accompaniment : Marilyn Manson - This is Halloween 

Year : 2011 

Description : Vampires, Werewolves, Zombies and Other Monstryatinu from various movies and TV shows

List Of movies : Freddy vs. Jason, 30 Days of Night: Dark Days, Werewolves, Resident Evil,Van Helsing,Nightmare on Elm Street, Underworld And Many Others.

SERIES : The Vampire Diaries, Supernatural, Walking Dead, Smallville, Charmed 



   General
      Complete name : Multifandom - This Is Halloween 
      Format profile : Base Media
      Codec ID : isom
      File size : 46.7 MiB
      Duration : 3mn 22s
      Overall bit rate : 1 939 Kbps
      Writing application : Lavf54.6.100
   Video #1
      ID : 1
      Format : AVC
      Format/Info : Advanced Video Codec
      Format profile : High@L3.1
      Format settings, CABAC : Yes
      Format settings, ReFrames : 3 frames
      Codec ID : avc1
      Codec ID/Info : Advanced Video Coding
      Duration : 3mn 22s
      Bit rate : 1 800 Kbps
      Width : 1 280 pixels
      Height : 720 pixels
      Display aspect ratio : 16:9
      Frame rate mode : Constant
      Frame rate : 30.000 fps
      Color space : YUV
      Chroma subsampling : 4:2:0
      Bit depth : 8 bits
      Scan type : Progressive
      Bits/(Pixel*Frame) : 0.065
      Stream size : 43.4 MiB (93%)
      Writing library : x264 core 118
      
   Audio #2
      ID : 2
      Format : AAC
      Format/Info : Advanced Audio Codec
      Format profile : LC
      Codec ID : 40
      Duration : 3mn 22s
      Bit rate mode : Constant
      Bit rate : 128 Kbps
      Channel(s) : 2 channels
      Channel positions : Front: L R
      Sampling rate : 48.0 KHz
      Compression mode : Lossy
      Delay relative to video : -2ms
      Stream size : 3.08 MiB (7%)



Happy Halloween!!!